<svg width="16" height="16" viewBox="0 0 16 16" fill="none" xmlns="http://www.w3.org/2000/svg">
<path d="M14.736 10.486C14.6369 10.4608 14.5352 10.4477 14.433 10.447L14.42 10.449C12.9634 10.2668 11.5614 9.78029 10.305 9.021L8.399 10.97C6.99 10.02 5.768 8.75 4.818 7.437H4.813H4.818L6.727 5.488C5.96784 4.22406 5.48174 2.81516 5.3 1.352L5.303 1.328C5.303 1.223 5.287 1.117 5.264 1.02C5.19674 0.73102 5.03402 0.473156 4.80212 0.288073C4.57023 0.10299 4.2827 0.00149978 3.986 0L1.317 0C0.601 0 0.02 0.573 0.003 1.285C0.003 1.296 0 1.306 0 1.317C0 1.394 0.01 1.468 0.022 1.54C0.286974 4.3227 1.28905 6.98444 2.925 9.251C3.91794 10.6265 5.12571 11.8332 6.502 12.825C8.76678 14.4592 11.4259 15.4609 14.206 15.727C14.28 15.74 14.356 15.75 14.433 15.75C14.444 15.75 14.455 15.747 14.466 15.746C14.8092 15.7384 15.1357 15.5967 15.3757 15.3513C15.6157 15.1059 15.7501 14.7763 15.75 14.433V11.764C15.75 11.142 15.316 10.622 14.736 10.486Z" fill="white"/>
</svg>
