<svg width="20" height="20" viewBox="0 0 20 20" fill="none" xmlns="http://www.w3.org/2000/svg">
<path d="M3.61232 4.63899C5.38377 2.88018 7.51339 2 10.0004 2C12.4874 2 14.6093 2.8794 16.3652 4.63899C18.1212 6.39779 19 8.51852 19 11.0004C19 13.4823 18.122 15.6022 16.3652 17.3618C14.6093 19.1206 12.4874 20 10.0004 20C7.51339 20 5.39151 19.1206 3.63398 17.3618C1.87799 15.603 1 13.4823 1 11.0004C1 8.51852 1.8718 6.39779 3.61232 4.63899ZM5.05733 15.9477C6.42499 17.3305 8.07267 18.0223 10.0004 18.0223C11.9266 18.0223 13.5758 17.3383 14.9434 15.9712C16.3111 14.6048 16.9949 12.9484 16.9949 10.9996C16.9949 9.08447 16.3111 7.4351 14.9434 6.05229C13.5758 4.67026 11.9266 3.97924 10.0004 3.97924C8.07267 3.97924 6.42499 4.67026 5.05733 6.05229C3.6889 7.43432 3.00584 9.08447 3.00584 11.0004C3.00584 12.9155 3.6889 14.5657 5.05733 15.9485V15.9477Z" fill="#4ED401"/>
<path d="M20 3.9025L18.6915 5.45476L14.1116 1.59906L15.4194 0.0468018L20 3.9025ZM5.84108 1.55226L1.30775 5.45476L0 3.9025L4.53178 0L5.84108 1.55226ZM11 6V11L15 13.5L13.738 15L9.01783 12.1318V6H11Z" fill="#4ED401"/>
</svg>
