<svg width="20" height="20" viewBox="0 0 20 20" fill="none" xmlns="http://www.w3.org/2000/svg">
<g clip-path="url(#clip0)">
<path d="M20 18H18C18 17.3668 18 16 18 16C18.5674 15.4434 18.9712 14.5659 19 13.7716C19 12.5 18.4969 11.6189 17.9712 11.0227L18 7C17.2684 7 16.4977 6.53695 15.9804 6.01961C15.4631 5.50226 14.9742 4.8006 14.9742 4.06897H5C5 4.8006 4.53695 5.50226 4.0196 6.01961C3.50226 6.53695 2.73163 7 2 7V13.1817C2.73163 13.1817 3.50226 13.4724 4.0196 13.9897C4.53695 14.507 5 15.2087 5 15.9403H13.0105L13.0013 18H0C0 12.6667 -0.000198236 7.33333 1.2815e-05 2H20C20 7.33333 20 12.6667 20 18ZM15.5 17C14.9742 17 14 16.705 14 16.705V20L15.5 19.5L17.0222 20V16.705C17.0222 16.705 16.5 17 15.5 17Z" fill="#4ED401"/>
<circle cx="15.5" cy="13.5" r="2.5" fill="#4ED401"/>
<rect x="6" y="12" width="6" height="1" fill="#4ED401"/>
<rect x="6" y="9" width="8" height="1" fill="#4ED401"/>
<rect x="6" y="6" width="8" height="1" fill="#4ED401"/>
</g>
<defs>
<clipPath id="clip0">
<path d="M0 0H20V20H0V0Z" fill="white"/>
</clipPath>
</defs>
</svg>
