<svg width="20" height="20" viewBox="0 0 20 20" fill="none" xmlns="http://www.w3.org/2000/svg">
<g clip-path="url(#clip0)">
<path d="M20.0002 2C20.0002 3.57144 20.0002 19.9986 20.0002 19.9986H-0.00121851C-0.000949861 13.9994 -0.0336291 7.9992 0.000245953 2.0001H3.00024V3.5C3.00024 4.12833 3.75302 5 4.50024 5C4.81957 5 6.50024 5 6.50024 5C7.3808 4.92423 8.00024 4.25169 8.00024 3.5V2.0001H12.0002V3.49859C12.0002 3.95788 12.5002 5 13.5002 5C13.5002 5 14.9545 5 15.5002 5C16.046 5 17.0002 4.5 17.0002 3.49859V2.0001C18.1967 2.0001 18.8038 2.00012 20.0002 2ZM18.0002 18L17.971 6.42717H2.00025V18H18.0002Z" fill="#4ED401"/>
<path fill-rule="evenodd" clip-rule="evenodd" d="M6.85693 0.714321C6.85693 0.320035 6.53551 3.52859e-05 6.14265 3.52859e-05H4.57122C4.17836 3.52859e-05 3.85693 0.320035 3.85693 0.714321V2.85718C3.85693 3.25146 4.17836 3.57146 4.57122 3.57146H6.14265C6.53551 3.57146 6.85693 3.25146 6.85693 2.85718V0.714321ZM15.9998 0.714321C15.9998 0.32075 15.6784 3.52859e-05 15.2855 3.52859e-05L13.714 0C13.3212 0 12.9998 0.320714 12.9998 0.714286V2.85714C12.9998 3.25214 13.3212 3.57143 13.714 3.57143L15.2855 3.57146C15.6784 3.57146 15.9998 3.25218 15.9998 2.85718V0.714321Z" fill="#4ED401"/>
</g>
<defs>
<clipPath id="clip0">
<path d="M0 0H20V20H0V0Z" fill="white"/>
</clipPath>
</defs>
</svg>
