<svg width="207" height="40" viewBox="0 0 207 40" fill="none" xmlns="http://www.w3.org/2000/svg">
<path d="M12.5205 22.7881C14.1453 23.6587 15 24.622 15 27.9994V38.9999H20V26.5183C20 21.0455 16.546 17.4777 11.4178 16.9763C9.67044 16.8188 8.2063 16.9617 6.66895 17.4464C6.12973 17.6144 5.72144 17.8348 5.28011 18.0999L4.98352 18.277L5 4.88879L4.80757 4.98715C4.41225 5.19469 3.58003 5.57936 2.44302 6.20282C0.616613 7.22928 0 8.46579 0 11.103V38.9999H5V23.4999L5.08827 23.442C7.37693 21.9509 10.4397 21.6762 12.5205 22.7881Z" fill="white"/>
<path d="M59.2731 26.7972L59.289 26.5871C59.5655 23.0547 62.774 21.4452 65.6387 21.4452C68.5126 21.4452 71.7488 23.0531 72.0638 26.5846L72.0822 26.7972H59.2731ZM73.9835 20.7651C71.986 18.3837 69.0765 17.0726 65.7943 17.0726H65.7232C58.3561 17.1156 54.5004 22.8601 54.5004 28.51C54.4753 31.6949 55.6533 34.7167 57.7315 36.8026C59.7554 38.8347 62.5356 39.9087 65.768 39.9087C69.6049 39.9087 72.9138 38.2021 75.333 34.9739L75.4171 34.8626L71.8818 32.6217L71.812 32.7201C70.024 35.1789 67.6442 35.494 65.768 35.494C62.1771 35.494 59.8872 33.0902 59.2768 30.8605L59.2099 30.6134H76.3253L76.3462 30.5067C77.0197 26.9072 76.158 23.3564 73.9835 20.7651Z" fill="white"/>
<path d="M29.8088 15.3992C29.4123 15.6063 28.7584 15.9898 27.6214 16.6145C25.795 17.6414 25 18.8779 25 21.5138V39H30V15.2992L29.8088 15.3992Z" fill="white"/>
<path d="M45 39L45 11.1925C45 8.55657 45.6179 7.32006 47.4468 6.29068C48.5813 5.66847 49.4123 5.28505 49.8076 5.07918L50 5V39H45Z" fill="white"/>
<path d="M35 39V10.8999C35 8.26394 35.6166 7.02743 37.4468 5.99805C38.58 5.37583 39.411 4.99242 39.8076 4.78654L40 4.68652V39L35 39Z" fill="white"/>
<path d="M81 39V11.1925C81 8.55654 81.6179 7.32003 83.448 6.29065C84.5813 5.66844 85.4123 5.28502 85.8088 5.07915L86 4.97913V39H81Z" fill="white"/>
<path d="M27.0249 13.717C27.6139 13.3482 28.1715 13.0752 28.6195 12.8572C29.3349 12.5067 29.9515 12.2033 30.41 11.7087C32.6593 9.28273 32.0874 5.5557 32.0611 5.39816L31.9979 5.01392L31.8172 5.35899C31.8067 5.37733 30.7923 7.28231 29.0144 8.60384C28.8132 8.7522 28.5651 8.9189 28.274 9.11478C27.7389 9.47444 27.0709 9.92078 26.2673 10.548C23.6226 12.613 23.5938 16.0312 23.5938 16.1758V16.5434L23.8255 16.2571C23.8284 16.2521 24.7349 15.1494 27.0249 13.717Z" fill="white"/>
<path d="M26.4631 6.80518C27.6742 6.04794 28.5359 5.45823 29.0932 4.85852C30.8459 2.96812 30.3782 0.470099 30.3557 0.365077L30.2845 0L30.113 0.328402C30.108 0.340071 29.3383 1.79579 27.9628 2.81726C27.8152 2.92728 27.6361 3.04814 27.4253 3.18859C27.0007 3.47365 26.4673 3.83205 25.8453 4.31632C23.7988 5.91374 23.7754 8.5618 23.7754 8.67307V9.04232L24.0084 8.75476C24.0126 8.74934 24.6869 7.91708 26.4631 6.80518Z" fill="white"/>
<path d="M200.28 27.5424L186.381 27.545C186.717 23.2539 189.886 21.3367 193.296 21.3367C196.706 21.3367 199.887 23.1418 200.28 27.5424ZM201.443 21.3822C199.424 18.9754 195.961 17.8165 193.381 17.8165C186.409 17.8165 182.5 23.4157 182.5 28.9242C182.475 32.1436 183.571 34.9214 185.65 37.0093C187.593 38.9593 190.159 39.9999 193.427 39.9999C196.427 39.9999 200.024 38.7866 202.421 35.5879L199.642 33.7874C198.038 35.9936 195.026 36.4443 193.427 36.4443C189.438 36.4443 187.068 33.6075 186.269 30.6902H203.741C204.343 27.4725 203.311 23.6082 201.443 21.3822Z" fill="#4ED401"/>
<path fill-rule="evenodd" clip-rule="evenodd" d="M106.566 17.8514C112.673 17.8514 117.631 22.7914 117.631 28.8761C117.631 34.9603 112.673 39.9003 106.566 39.9003C100.459 39.9003 95.5 34.9603 95.5 28.8761C95.5 22.7914 100.459 17.8514 106.566 17.8514ZM106.566 21.5057C110.672 21.5057 114.006 24.8269 114.006 28.9182C114.006 33.0089 110.672 36.3301 106.566 36.3301C102.46 36.3301 99.1258 33.0089 99.1258 28.9182C99.1258 24.8269 102.46 21.5057 106.566 21.5057Z" fill="#4ED401"/>
<path d="M144 38.9999V15.4393C144 12.9631 144.715 11.7536 146.013 11.0235C147.152 10.3832 147.406 10.2328 147.807 10.0247L148 9.92358V38.9999H144Z" fill="#4ED401"/>
<path d="M124.36 17.9999L125.383 19.557C125.383 19.557 126.096 18.8985 127.086 18.5076C128.577 17.9212 129.925 17.8337 131.664 17.988C136.766 18.487 140 21.8204 140 27.2629V38.9999H136V28.2737C136 24.9146 135.156 23.7314 133.567 22.8569C131.322 21.6223 127.521 21.8744 125 23.4999V38.9999H121V17.9999H124.36Z" fill="#4ED401"/>
<path d="M163.36 18.0789L164.383 19.636C164.383 19.636 165.096 18.9775 166.086 18.5866C167.577 18.0001 168.925 17.9127 170.664 18.067C175.766 18.566 179 21.8994 179 27.3418V39.0789H175V28.3527C175 24.9936 174.156 23.8104 172.567 22.9359C170.322 21.7013 166.521 21.9534 164 23.5789V39.0789H160V18.0789H163.36Z" fill="#4ED401"/>
<path d="M155.811 18.0604C155.412 18.2684 155.36 18.3027 154.218 18.93C152.384 19.961 152 21.1055 152 23.4455V39H156V17.9625L155.811 18.0604Z" fill="#4ED401"/>
<path d="M156.002 13.75L155.836 13.8374C155.418 14.0431 154.804 14.2747 154.05 14.6759C153.193 15.1389 152.816 15.3601 152 16.0751V14.9177C152 13.5442 152.289 12.0421 153.988 11.0853C155.124 10.4423 155.408 10.3085 155.805 10.0976L156.002 9.99988V13.75Z" fill="#4ED401"/>
</svg>
