<svg width="135" height="26" viewBox="0 0 135 26" fill="none" xmlns="http://www.w3.org/2000/svg">
<g clip-path="url(#clip0)">
<path d="M8.13832 14.8124C9.19443 15.3783 9.75 16.0044 9.75 18.1997V25.3501H13V17.2371C13 13.6797 10.7549 11.3606 7.42156 11.0348C6.28579 10.9324 5.3341 11.0253 4.33482 11.3403C3.98432 11.4495 3.71894 11.5928 3.43207 11.7651L3.23929 11.8802L3.25 3.17786L3.12492 3.24179C2.86796 3.37669 2.32702 3.62672 1.58797 4.03197C0.400798 4.69918 0 5.50291 0 7.2171V25.3501H3.25V15.2751L3.30737 15.2374C4.795 14.2682 6.78583 14.0897 8.13832 14.8124Z" fill="#004182"/>
<path d="M38.5273 17.4182L38.5376 17.2817C38.7174 14.9856 40.8029 13.9395 42.665 13.9395C44.533 13.9395 46.6365 14.9846 46.8413 17.2801L46.8532 17.4182H38.5273ZM48.0891 13.4974C46.7907 11.9495 44.8995 11.0973 42.7661 11.0973H42.7199C37.9313 11.1252 35.4251 14.8591 35.4251 18.5316C35.4087 20.6017 36.1744 22.566 37.5253 23.9218C38.8408 25.2426 40.6479 25.9407 42.749 25.9407C45.243 25.9407 47.3938 24.8314 48.9663 22.7331L49.0209 22.6608L46.723 21.2042L46.6776 21.2681C45.5154 22.8664 43.9685 23.0712 42.749 23.0712C40.4149 23.0712 38.9265 21.5087 38.5297 20.0594L38.4862 19.8988H49.6112L49.6248 19.8294C50.0626 17.4898 49.5025 15.1818 48.0891 13.4974Z" fill="#004182"/>
<path d="M19.3757 10.0096C19.118 10.1442 18.6929 10.3934 17.9539 10.7995C16.7667 11.467 16.25 12.2707 16.25 13.9841V25.3501H19.5V9.94458L19.3757 10.0096Z" fill="#004182"/>
<path d="M29.25 25.35L29.25 7.27515C29.25 5.56177 29.6516 4.75804 30.8404 4.08894C31.5778 3.6845 32.118 3.43529 32.3749 3.30147L32.5 3.25V25.35H29.25Z" fill="#004182"/>
<path d="M22.75 25.3496V7.0846C22.75 5.37122 23.1508 4.56749 24.3404 3.89839C25.077 3.49395 25.6171 3.24473 25.8749 3.11091L26 3.0459V25.3496H22.75Z" fill="#004182"/>
<path d="M52.6499 25.3502V7.2754C52.6499 5.56202 53.0515 4.75828 54.2411 4.08919C54.9777 3.68475 55.5179 3.43553 55.7756 3.30171L55.8999 3.23669V25.3502H52.6499Z" fill="#004182"/>
<path d="M17.5662 8.91616C17.949 8.67642 18.3115 8.49899 18.6027 8.35731C19.0677 8.12949 19.4685 7.93228 19.7665 7.61074C21.2285 6.03388 20.8568 3.61131 20.8397 3.50892L20.7986 3.25916L20.6812 3.48345C20.6744 3.49537 20.015 4.73361 18.8594 5.5926C18.7286 5.68904 18.5673 5.7974 18.3781 5.92472C18.0303 6.15849 17.5961 6.44862 17.0737 6.85631C15.3547 8.19857 15.3359 10.4204 15.3359 10.5144V10.7533L15.4866 10.5672C15.4885 10.564 16.0777 9.84721 17.5662 8.91616Z" fill="#004182"/>
<path d="M17.2011 4.42337C17.9883 3.93116 18.5485 3.54785 18.9106 3.15804C20.05 1.92928 19.746 0.305564 19.7313 0.2373L19.6851 0L19.5736 0.213462C19.5703 0.221046 19.07 1.16727 18.1759 1.83122C18.08 1.90273 17.9636 1.98129 17.8265 2.07258C17.5505 2.25787 17.2039 2.49084 16.7995 2.80561C15.4693 3.84393 15.4541 5.56517 15.4541 5.6375V5.87751L15.6056 5.69059C15.6083 5.68707 16.0466 5.1461 17.2011 4.42337Z" fill="#004182"/>
<path d="M130.182 17.9028L121.148 17.9044C121.366 15.1152 123.426 13.869 125.642 13.869C127.859 13.869 129.927 15.0424 130.182 17.9028ZM130.938 13.8986C129.625 12.3342 127.374 11.5809 125.698 11.5809C121.166 11.5809 118.625 15.2204 118.625 18.8009C118.609 20.8935 119.321 22.6991 120.673 24.0562C121.935 25.3238 123.604 26.0001 125.727 26.0001C127.677 26.0001 130.015 25.2115 131.574 23.1323L129.768 21.962C128.725 23.396 126.767 23.689 125.727 23.689C123.135 23.689 121.594 21.8451 121.075 19.9488H132.432C132.823 17.8573 132.152 15.3455 130.938 13.8986Z" fill="#4ED401"/>
<path fill-rule="evenodd" clip-rule="evenodd" d="M69.2679 11.6034C73.2379 11.6034 76.4606 14.8144 76.4606 18.7694C76.4606 22.7241 73.2379 25.9351 69.2679 25.9351C65.2983 25.9351 62.0752 22.7241 62.0752 18.7694C62.0752 14.8144 65.2983 11.6034 69.2679 11.6034ZM69.2679 13.9787C71.9373 13.9787 74.1042 16.1374 74.1042 18.7968C74.1042 21.4558 71.9373 23.6145 69.2679 23.6145C66.5989 23.6145 64.432 21.4558 64.432 18.7968C64.432 16.1374 66.5989 13.9787 69.2679 13.9787Z" fill="#4ED401"/>
<path d="M93.6001 25.3499V10.0355C93.6001 8.42598 94.0646 7.63982 94.9084 7.16528C95.6486 6.74906 95.8139 6.65131 96.0745 6.51604L96.2001 6.45032V25.3499H93.6001Z" fill="#4ED401"/>
<path d="M80.8343 11.6997L81.4995 12.7118C81.4995 12.7118 81.963 12.2838 82.6061 12.0297C83.5757 11.6485 84.4517 11.5916 85.5818 11.6919C88.8985 12.0163 91.0004 14.183 91.0004 17.7206V25.3497H88.4004V18.3776C88.4004 16.1942 87.852 15.4252 86.8189 14.8567C85.3596 14.0543 82.8889 14.2181 81.2504 15.2747V25.3497H78.6504V11.6997H80.8343Z" fill="#4ED401"/>
<path d="M106.184 11.7513L106.849 12.7634C106.849 12.7634 107.313 12.3354 107.956 12.0813C108.925 11.7001 109.801 11.6433 110.931 11.7436C114.248 12.0679 116.35 14.2346 116.35 17.7722V25.4013H113.75V18.4293C113.75 16.2458 113.202 15.4768 112.169 14.9084C110.709 14.1059 108.239 14.2697 106.6 15.3263V25.4013H104V11.7513H106.184Z" fill="#4ED401"/>
<path d="M101.277 11.7392C101.018 11.8744 100.984 11.8967 100.242 12.3044C99.0501 12.9746 98.8003 13.7185 98.8003 15.2395V25.3499H101.4V11.6755L101.277 11.7392Z" fill="#4ED401"/>
<path d="M101.401 8.93755L101.294 8.99437C101.022 9.12811 100.623 9.27862 100.133 9.53943C99.5756 9.84036 99.3306 9.98413 98.8003 10.4489V9.69657C98.8003 8.80381 98.9882 7.82747 100.092 7.20555C100.831 6.78759 101.015 6.7006 101.274 6.56351L101.401 6.5V8.93755Z" fill="#4ED401"/>
</g>
<defs>
<clipPath id="clip0">
<path d="M0 0H134.55V26H0V0Z" fill="white"/>
</clipPath>
</defs>
</svg>
