<svg width="32" height="32" viewBox="0 0 32 32" fill="none" xmlns="http://www.w3.org/2000/svg">
<rect width="32" height="32" rx="16" fill="url(#paint0_linear)"/>
<path d="M24.6255 14.4569C25.6627 14.6516 21.8668 23.2282 21.4592 23.0725C21.0895 23.569 20.497 24.1921 19.6817 24.9514C19.4229 25.224 19.0712 25.5939 18.6266 25.5939H12.9614C12.5168 25.5939 12.165 25.224 11.9053 24.9514C10.3875 23.5885 9.23953 21.953 8.46122 20.0449C7.42506 17.504 6.90649 15.3915 6.90649 13.7171C6.90649 13.1816 7.42506 12.4709 7.79478 12.4709H23.7922C24.015 12.4709 24.6814 13.4153 24.6814 13.7171C24.6814 14.0189 24.6625 14.272 24.6255 14.4569Z" fill="white"/>
<g opacity="0.7">
<path d="M19.5748 11.9769H13.409C13.3351 11.7734 12.9739 11.5433 12.3264 11.1096C11.678 10.6848 11.3538 10.2069 11.3538 9.68478C11.3538 9.26883 11.5111 8.87947 11.8258 8.51661C12.1406 8.15376 12.5018 7.90587 12.9094 7.76426C12.7985 8.18022 12.7426 8.54317 12.7426 8.85292C12.7426 9.17153 13.1038 9.59631 13.8262 10.1539C14.5476 10.7026 14.9087 11.1893 14.9087 11.6053C14.9087 11.8089 14.8908 11.8796 14.8538 11.9769H17.9642C18.0381 11.6318 18.0751 11.4814 18.0751 11.3486C18.0751 10.8265 17.8163 10.3751 17.2977 9.99452C16.7792 9.61396 16.2606 9.19806 15.7421 8.72901C15.2235 8.25995 14.9647 7.68462 14.9647 6.99431C14.9647 6.26859 15.215 5.58721 15.7146 4.9677C16.2142 4.34819 16.8351 3.94995 17.5755 3.77295C17.2418 4.87922 17.0759 5.48981 17.0759 5.58716C17.0759 6.10932 17.603 6.82623 18.6581 7.7378C19.7142 8.65821 20.2412 9.46356 20.2412 10.1539C20.2412 10.7026 20.0194 11.2512 19.5748 11.9769Z" fill="white"/>
<path d="M24.647 14.4718C25.6728 14.6605 26.526 15.1854 27.2051 16.0304C27.8905 16.8836 28.2332 17.8682 28.2332 18.9675C28.2332 20.1078 27.8442 21.1331 27.0669 22.0519C26.2144 23.0364 25.0856 23.5369 23.678 23.5369C23.1971 23.5369 22.7337 23.4713 22.2895 23.3646C22.1505 23.3236 21.8981 23.2417 21.5314 23.1022L21.4563 23.0774C21.6448 23.143 22.4637 21.4861 22.4565 21.4779C22.7521 21.6338 23.1595 21.7074 23.678 21.7074C24.5296 21.7074 25.2055 21.4287 25.7056 20.879C26.2057 20.3294 26.4557 19.6894 26.4557 18.9675C26.4557 18.3194 26.252 17.745 25.8446 17.2282C25.4843 16.777 25.0369 16.4817 24.5032 16.3341C24.8164 15.284 24.9242 14.5208 24.6223 14.4634L24.647 14.4718Z" fill="white"/>
</g>
<defs>
<linearGradient id="paint0_linear" x1="32" y1="0" x2="0" y2="32" gradientUnits="userSpaceOnUse">
<stop stop-color="#FFD028"/>
<stop offset="1" stop-color="#F8522D"/>
</linearGradient>
</defs>
</svg>
