<svg width="65" height="64" viewBox="0 0 65 64" fill="none" xmlns="http://www.w3.org/2000/svg">
<path d="M49.7516 28.9136C51.8258 29.303 44.2342 46.4562 43.4189 46.1447C42.6795 47.1377 41.4945 48.3839 39.8639 49.9026C39.3463 50.4477 38.6429 51.1877 37.7537 51.1877H26.4232C25.534 51.1877 24.8306 50.4477 24.3111 49.9026C21.2756 47.1767 18.9795 43.9057 17.4229 40.0895C15.3506 35.0078 14.3135 30.7828 14.3135 27.4339C14.3135 26.363 15.3506 24.9417 16.09 24.9417H48.0849C48.5305 24.9417 49.8634 26.8303 49.8634 27.4339C49.8634 28.0375 49.8255 28.5437 49.7516 28.9136Z" fill="white"/>
<g opacity="0.7">
<path d="M39.6501 23.9538H27.3186C27.1707 23.5467 26.4483 23.0865 25.1533 22.2192C23.8564 21.3696 23.208 20.4138 23.208 19.3694C23.208 18.5375 23.5227 17.7588 24.1522 17.0331C24.7817 16.3074 25.504 15.8116 26.3193 15.5284C26.0975 16.3603 25.9857 17.0862 25.9857 17.7057C25.9857 18.3429 26.7081 19.1925 28.1528 20.3076C29.5957 21.405 30.318 22.3786 30.318 23.2105C30.318 23.6176 30.282 23.7591 30.208 23.9538H36.4288C36.5767 23.2634 36.6507 22.9626 36.6507 22.6971C36.6507 21.6528 36.133 20.75 35.0959 19.9889C34.0588 19.2278 33.0217 18.396 31.9846 17.4579C30.9475 16.5198 30.4299 15.3691 30.4299 13.9885C30.4299 12.5371 30.9305 11.1743 31.9296 9.93527C32.9288 8.69625 34.1706 7.89978 35.6514 7.54578C34.984 9.75831 34.6522 10.9795 34.6522 11.1742C34.6522 12.2185 35.7064 13.6523 37.8167 15.4755C39.9288 17.3163 40.983 18.927 40.983 20.3076C40.983 21.405 40.5393 22.5023 39.6501 23.9538Z" fill="white"/>
<path d="M49.7946 28.9435C51.8461 29.3208 53.5525 30.3708 54.9106 32.0608C56.2815 33.7672 56.967 35.7362 56.967 37.9348C56.967 40.2155 56.1888 42.2661 54.6342 44.1037C52.9294 46.0727 50.6717 47.0736 47.8564 47.0736C46.8946 47.0736 45.9679 46.9424 45.0796 46.7291C44.8015 46.6471 44.2966 46.4833 43.5633 46.2044L43.4131 46.1547C43.7902 46.286 45.4278 42.9721 45.4135 42.9557C46.0046 43.2674 46.8195 43.4147 47.8564 43.4147C49.5597 43.4147 50.9114 42.8573 51.9116 41.758C52.9118 40.6586 53.4119 39.3787 53.4119 37.9348C53.4119 36.6386 53.0045 35.4899 52.1896 34.4562C51.469 33.5538 50.5743 32.9634 49.507 32.668C50.1333 30.5679 50.349 29.0415 49.745 28.9266L49.7946 28.9435Z" fill="white"/>
</g>
</svg>
