<svg width="45" height="14" viewBox="0 0 45 14" fill="#fff" xmlns="http://www.w3.org/2000/svg">
<g clip-path="url(#clip0)">
<path d="M43.6319 7.0647L37.9423 7.06573C38.0797 5.30249 39.377 4.5147 40.773 4.5147C42.1691 4.5147 43.4712 5.25645 43.6319 7.0647ZM44.1082 4.53339C43.2815 3.54445 41.8638 3.06824 40.808 3.06824C37.9539 3.06824 36.3537 5.36897 36.3537 7.63248C36.3433 8.95534 36.7918 10.0968 37.6431 10.9547C38.4382 11.756 39.489 12.1836 40.8265 12.1836C42.0545 12.1836 43.5271 11.685 44.5085 10.3706L43.371 9.63079C42.7144 10.5373 41.4812 10.7226 40.8265 10.7226C39.1938 10.7226 38.2234 9.55688 37.8964 8.35813H45.0489C45.2954 7.03596 44.8728 5.44808 44.1082 4.53339Z" fill="#4ED401"/>
<path fill-rule="evenodd" clip-rule="evenodd" d="M4.52991 3.08252C7.03016 3.08252 9.05982 5.11241 9.05982 7.61266C9.05982 10.1127 7.03016 12.1426 4.52991 12.1426C2.02989 12.1426 0 10.1127 0 7.61266C0 5.11241 2.02989 3.08252 4.52991 3.08252ZM4.52991 4.58408C6.21107 4.58408 7.57577 5.94878 7.57577 7.62994C7.57577 9.31087 6.21107 10.6756 4.52991 10.6756C2.84898 10.6756 1.48428 9.31087 1.48428 7.62994C1.48428 5.94878 2.84898 4.58408 4.52991 4.58408Z" fill="#4ED401"/>
<path d="M20.0029 11.8985V2.09141C20.0029 1.0739 20.2955 0.576916 20.8269 0.276926C21.2931 0.013808 21.4101 -0.0479903 21.5742 -0.133504L21.6533 -0.175049V11.8985H20.0029Z" fill="#4ED401"/>
<path d="M11.954 3.20856L12.373 3.78349C12.373 3.78349 12.6649 3.51292 13.0699 3.35228C13.6806 3.11131 14.2323 3.07537 14.944 3.13879C17.0328 3.34382 18.1862 4.71354 18.1862 6.9499V11.8982H16.6633V7.212C16.6633 5.83172 16.3179 5.34555 15.6673 4.98621C14.7482 4.47891 13.2379 4.58248 12.206 5.25043L12.2432 11.8982H10.5786V3.20856H11.954Z" fill="#4ED401"/>
<path d="M28.4907 3.20856L28.9096 3.78349C28.9096 3.78349 29.2015 3.51292 29.6065 3.35228C30.2172 3.11131 30.7689 3.07537 31.4806 3.13879C33.5694 3.34382 34.7229 4.71354 34.7229 6.9499V11.8982H33.1999V7.212C33.1999 5.83172 32.8545 5.34555 32.2039 4.98621C31.2848 4.47891 29.7746 4.58248 28.7426 5.25043L28.7798 11.8982H27.1152V3.20856H28.4907Z" fill="#4ED401"/>
<path d="M25.2578 3.12849C25.0948 3.21395 25.0731 3.22805 24.6058 3.48579C23.8551 3.90946 23.6978 4.37973 23.6978 5.34125V11.8997H25.3354V3.08826L25.2578 3.12849Z" fill="#4ED401"/>
<path d="M25.3359 1.35734L25.2683 1.39326C25.0971 1.47781 24.8455 1.57296 24.5369 1.73783C24.186 1.92807 24.0317 2.01895 23.6978 2.31277V1.83717C23.6978 1.2728 23.8161 0.655591 24.5115 0.262432C24.9766 -0.00178782 25.0928 -0.0567806 25.2556 -0.143445L25.3359 -0.183594V1.35734Z" fill="#4ED401"/>
</g>
<defs>
<clipPath id="clip0">
<path d="M0 0H45V14H0V0Z" fill="white"/>
</clipPath>
</defs>
</svg>
