<svg width="20" height="20" viewBox="0 0 20 20" fill="none" xmlns="http://www.w3.org/2000/svg">
<path fill-rule="evenodd" clip-rule="evenodd" d="M10 18C14.4183 18 18 14.4183 18 10C18 5.58172 14.4183 2 10 2C5.58172 2 2 5.58172 2 10C2 14.4183 5.58172 18 10 18ZM20 10C20 15.5228 15.5228 20 10 20C4.47715 20 0 15.5228 0 10C0 4.47715 4.47715 0 10 0C15.5228 0 20 4.47715 20 10Z" fill="#4ED401"/>
<path fill-rule="evenodd" clip-rule="evenodd" d="M8.55647 14.7632L15.9756 7.34405L14.1498 5.51709L8.5 11.1669L6.22541 8.89341L4.45605 10.6628L8.55647 14.7632Z" fill="#4ED401"/>
</svg>
