<svg width="32" height="32" viewBox="0 0 32 32" fill="none" xmlns="http://www.w3.org/2000/svg">
<rect width="32" height="32" rx="16" fill="url(#paint0_linear)"/>
<path d="M16.9072 12.9641L18.4337 14.4906L18.6358 14.8316C18.7713 15.0135 18.7517 15.1906 18.5664 15.376L16.1921 17.7503C15.2423 18.7 14.2284 19.7707 13.1385 20.974C12.0539 22.171 11.2189 23.1311 10.6265 23.8591L9.74394 24.9454C9.61074 25.0786 9.47345 25.0804 9.33736 24.9443L6.48709 22.094C6.35159 21.9585 6.35337 21.8212 6.48656 21.688C9.133 19.5396 11.5327 17.3878 13.6811 15.2394L16.0554 12.865C16.2176 12.7029 16.3953 12.6838 16.6003 12.7961L16.9072 12.9641Z" fill="white" fill-opacity="0.7"/>
<path d="M27.7962 13.002C27.9322 13.1381 27.9363 13.2695 27.7973 13.4085L24.9483 16.2575C24.8093 16.3965 24.6778 16.3925 24.5417 16.2564L22.7772 14.492C22.6417 14.3565 22.6377 14.2249 22.7767 14.086L23.2515 13.6111C23.2058 13.1137 23.0378 12.7836 22.7425 12.6273C22.2196 12.336 21.6023 12.2746 20.8732 12.4605C20.5119 12.5508 20.4899 12.4361 19.2217 13.7043L17.6952 12.1779C18.4191 11.454 18.1132 11.6579 18.3472 11.2201C18.5869 10.7765 18.6901 10.2773 18.6686 9.71156C18.6229 8.7161 18.1075 7.80692 17.1097 6.99446C16.7698 6.70087 16.2226 6.53584 15.4622 6.50515C14.7071 6.46809 14.0886 6.48661 13.6132 6.55552C13.2987 6.50745 13.3074 6.27291 13.6502 5.83975C14.0319 5.5033 14.7273 5.2607 15.7361 5.11129C16.7448 4.96189 17.7791 5.10431 18.8383 5.53805C20.5124 6.21616 21.9149 7.12075 23.0459 8.25171C23.5439 8.74973 23.9389 9.2141 24.2371 9.63973C24.3269 9.77582 24.3639 10.033 24.3535 10.4048C24.3437 10.7771 24.3923 11.0226 24.5052 11.1356C24.7091 11.3394 25.0166 11.4384 25.4231 11.4396L25.6257 11.2369C25.7647 11.0979 25.8962 11.102 26.0317 11.2375L27.7962 13.002Z" fill="white"/>
<defs>
<linearGradient id="paint0_linear" x1="32" y1="0" x2="0" y2="32" gradientUnits="userSpaceOnUse">
<stop stop-color="#00FFC2"/>
<stop offset="1" stop-color="#00CA2C"/>
</linearGradient>
</defs>
</svg>
