<svg width="32" height="32" viewBox="0 0 32 32" fill="none" xmlns="http://www.w3.org/2000/svg">
<rect width="32" height="32" rx="16" fill="url(#paint0_linear)"/>
<rect width="32" height="32" rx="16" fill="url(#paint1_linear)"/>
<path d="M25.7523 14.1756C26.3773 14.4868 26.6894 14.9936 26.6894 15.6871C26.6894 16.4517 26.3426 16.9673 25.6474 17.2518C25.8563 17.5275 25.9603 17.8565 25.9603 18.2388C25.9603 19.0035 25.6127 19.519 24.9183 19.8035C25.0917 20.0792 25.1788 20.3727 25.1788 20.6839C25.1788 21.1373 25.0401 21.4663 24.7618 21.6796C24.4844 21.8841 24.015 22.0796 23.3553 22.2486C21.5148 22.702 19.3267 22.8532 16.791 22.7198C16.4443 22.7198 15.7925 22.6576 14.8376 22.5332C13.8827 22.4087 13.5351 22.3554 13.1528 22.3554V12.353C14.1602 12.2818 14.5336 12.0417 14.9159 11.6239C16.3056 10.1657 16.9999 8.28976 16.9999 5.99588C16.9999 4.95563 17.0693 4.35994 17.208 4.22657C17.5556 3.87982 18.042 3.92421 18.667 4.37765C19.2921 4.83109 19.709 5.41789 19.9171 6.14695C20.0211 6.56483 20.0905 7.00057 20.1252 7.45402C20.1607 7.90746 20.1607 8.28089 20.1252 8.57429C20.0905 8.8677 20.0389 9.24102 19.9696 9.69446C19.9002 10.1479 19.8655 10.7169 19.8655 10.9214H25.2312C25.7176 10.9214 26.1337 10.8593 26.4813 11.206C26.829 11.5528 27.0023 11.9706 27.0023 12.4508C27.0023 13.3576 26.5854 13.9266 25.7523 14.1756Z" fill="white"/>
<path d="M12.384 11.6946V23.9998H6.9978V11.6946H12.384ZM8.66487 21.5192C8.66487 22.0793 8.94228 22.355 9.49797 22.355C10.0537 22.355 10.3319 22.0793 10.3319 21.5192C10.3319 20.968 10.0537 20.6835 9.49797 20.6835C8.94228 20.6835 8.66487 20.968 8.66487 21.5192Z" fill="white" fill-opacity="0.7"/>
<defs>
<linearGradient id="paint0_linear" x1="32" y1="0" x2="0" y2="32" gradientUnits="userSpaceOnUse">
<stop stop-color="#FFD028"/>
<stop offset="1" stop-color="#F8522D"/>
</linearGradient>
<linearGradient id="paint1_linear" x1="32" y1="0" x2="0" y2="32" gradientUnits="userSpaceOnUse">
<stop stop-color="#00A3FF"/>
<stop offset="1" stop-color="#0051CA"/>
</linearGradient>
</defs>
</svg>
