<svg width="20" height="20" viewBox="0 0 20 20" fill="none" xmlns="http://www.w3.org/2000/svg">
<g clip-path="url(#clip0)">
<path fill-rule="evenodd" clip-rule="evenodd" d="M7.08547 5.69877C12.7608 0.0234599 19.9994 0 19.9994 0L20 0.000566454C20 0.000566454 19.9771 7.23978 14.3018 12.9151C14.0391 13.1777 13.7575 13.4123 13.462 13.6197C13.535 14.6202 13.4946 16.1483 12.71 16.9322C10.8698 18.7724 7.8152 19.4004 7.8152 19.4004L8.41369 15.3661L7.03215 15.3737L4.62652 12.9681L4.63396 11.5859L0.598881 12.1841C0.598881 12.1841 1.2269 9.12944 3.06708 7.28926C3.85135 6.50426 5.38081 6.46445 6.38141 6.53773C6.58868 6.24256 6.82305 5.96119 7.08547 5.69877ZM12.033 5.8479C11.9534 6.04874 11.9146 6.26305 11.919 6.47818C11.9275 6.8985 12.0999 7.29705 12.3995 7.58885C12.6991 7.88065 13.1021 8.04263 13.5226 8.04023C13.9431 8.03783 14.3479 7.87125 14.6506 7.57602C14.9533 7.28078 15.13 6.88024 15.143 6.4598C15.1497 6.2446 15.1132 6.03073 15.0357 5.83078C14.9583 5.63083 14.8414 5.44886 14.692 5.29558C14.5426 5.14231 14.3636 5.02084 14.1658 4.93833C13.9679 4.85583 13.7551 4.81395 13.5398 4.81518C13.3246 4.81641 13.1113 4.86071 12.9126 4.94548C12.7138 5.03025 12.5336 5.15377 12.3825 5.30875C12.2315 5.46374 12.1126 5.64706 12.033 5.8479ZM6.60832 16.1092C6.58413 16.1435 6.56342 16.1798 6.54268 16.2162C6.50727 16.2783 6.47176 16.3406 6.41863 16.393C4.99579 17.8159 2.87659 17.1207 2.87659 17.1207C2.87659 17.1207 2.17966 15.0021 3.60422 13.5786C3.6562 13.5266 3.71655 13.4922 3.77706 13.4576C3.81464 13.4362 3.85229 13.4147 3.88803 13.3889L3.22867 12.7273C2.65864 12.8752 2.13681 13.1724 1.71715 13.5879C-0.276091 15.5812 0.014856 19.9824 0.014856 19.9824C0.014856 19.9824 4.3903 20.2991 6.40934 18.2801C6.84273 17.8467 7.12156 17.3207 7.26998 16.7686L6.60832 16.1092Z" fill="#4ED401"/>
</g>
<defs>
<clipPath id="clip0">
<path d="M0 0H20V20H0V0Z" fill="white"/>
</clipPath>
</defs>
</svg>
